<?xml version="1.0" encoding="UTF-8"?>
<svg id="Layer_1" data-name="Layer 1" xmlns="http://www.w3.org/2000/svg" viewBox="0 0 164.52 176.97">
  <defs>
    <style>
      .cls-1 {
        fill: #fff;
        stroke-width: 0px;
      }
    </style>
  </defs>
  <path class="cls-1" d="m164.52,25.28V0H40.8C14.5,0,.49,15.73.49,42.77c0,19.66,7.37,33.67,29.99,53.58,17.7,15.48,23.1,24.58,23.1,38.83,0,12.78-5.41,17.21-14.01,17.21s-14.01-4.43-14.01-16.71v-11.8H0v9.83c0,27.53,13.27,43.26,39.82,43.26h71.19v-77.11h41.98v-25.28h-41.98V25.28h53.51Zm-131.06,13.09c0-12.11,10.21-21.94,22.8-21.94s22.8,9.82,22.8,21.94-10.21,21.94-22.8,21.94-22.8-9.82-22.8-21.94Zm56.72,122.24L47.01,63.34c2.89.99,6,1.53,9.24,1.53,8.34,0,15.81-3.57,20.86-9.21l24.14,101.43-11.07,3.51Z"/>
</svg>